M48
; DRILL file {KiCad (5.1.6)-1} date 09/27/20 17:15:59
; FORMAT={-:-/ absolute / inch / decimal}
; #@! TF.CreationDate,2020-09-27T17:15:59+01:00
; #@! TF.GenerationSoftware,Kicad,Pcbnew,(5.1.6)-1
; #@! TF.FileFunction,Plated,1,2,PTH
FMAT,2
INCH
T1C0.0315
T2C0.0319
T3C0.0354
T4C0.0394
%
G90
G05
T1
X7.0761Y-2.9717
X7.1745Y-2.9717
X7.0795Y-5.4717
X7.0795Y-5.9717
X7.7845Y-4.4717
X7.7845Y-4.5717
X7.7845Y-4.6717
X7.7845Y-4.7717
X7.7845Y-4.8717
X7.7845Y-4.9717
X7.7845Y-5.0717
X8.0845Y-4.4717
X8.0845Y-4.5717
X8.0845Y-4.6717
X8.0845Y-4.7717
X8.0845Y-4.8717
X8.0845Y-4.9717
X8.0845Y-5.0717
X6.5847Y-2.9714
X6.5847Y-3.0714
X6.5847Y-3.1714
X6.5847Y-3.2714
X6.5847Y-3.3714
X6.5847Y-3.4714
X6.5847Y-3.5714
X6.5847Y-3.6714
X6.5847Y-3.7714
X6.5847Y-3.8714
X6.8847Y-2.9714
X6.8847Y-3.0714
X6.8847Y-3.1714
X6.8847Y-3.2714
X6.8847Y-3.3714
X6.8847Y-3.4714
X6.8847Y-3.5714
X6.8847Y-3.6714
X6.8847Y-3.7714
X6.8847Y-3.8714
X7.7845Y-5.4717
X7.7845Y-5.5717
X7.7845Y-5.6717
X7.7845Y-5.7717
X7.7845Y-5.8717
X7.7845Y-5.9717
X7.7845Y-6.0717
X7.7845Y-6.1717
X8.0845Y-5.4717
X8.0845Y-5.5717
X8.0845Y-5.6717
X8.0845Y-5.7717
X8.0845Y-5.8717
X8.0845Y-5.9717
X8.0845Y-6.0717
X8.0845Y-6.1717
X8.1845Y-6.1417
X8.2845Y-6.1417
X7.6345Y-2.8567
X7.7345Y-2.8567
X5.4795Y-4.8667
X5.4795Y-5.3667
X9.5645Y-4.5727
X9.5645Y-4.6727
X9.5645Y-4.7727
X9.5645Y-4.8727
X9.5645Y-4.9727
X9.5645Y-5.0727
X9.5645Y-5.1727
X9.5645Y-5.2727
X9.5645Y-5.3727
X9.2847Y-2.8714
X9.2847Y-2.9714
X9.2847Y-3.0714
X9.2847Y-3.1714
X9.2847Y-3.2714
X9.2847Y-3.3714
X9.2847Y-3.4714
X9.5847Y-2.8714
X9.5847Y-2.9714
X9.5847Y-3.0714
X9.5847Y-3.1714
X9.5847Y-3.2714
X9.5847Y-3.3714
X9.5847Y-3.4714
X8.2847Y-3.1714
X8.2847Y-3.2714
X8.2847Y-3.3714
X8.2847Y-3.4714
X8.2847Y-3.5714
X8.2847Y-3.6714
X8.2847Y-3.7714
X8.2847Y-3.8714
X8.2847Y-3.9714
X8.2847Y-4.0714
X8.2847Y-4.1714
X8.2847Y-4.2714
X8.8847Y-3.1714
X8.8847Y-3.2714
X8.8847Y-3.3714
X8.8847Y-3.4714
X8.8847Y-3.5714
X8.8847Y-3.6714
X8.8847Y-3.7714
X8.8847Y-3.8714
X8.8847Y-3.9714
X8.8847Y-4.0714
X8.8847Y-4.1714
X8.8847Y-4.2714
X9.2845Y-3.6717
X9.2845Y-3.7717
X9.2845Y-3.8717
X9.2845Y-3.9717
X9.2845Y-4.0717
X9.2845Y-4.1717
X9.2845Y-4.2717
X9.5845Y-3.6717
X9.5845Y-3.7717
X9.5845Y-3.8717
X9.5845Y-3.9717
X9.5845Y-4.0717
X9.5845Y-4.1717
X9.5845Y-4.2717
X5.3845Y-4.8667
X5.3845Y-5.3667
X9.4245Y-6.1717
X9.5245Y-6.1717
X7.5845Y-5.5217
X7.5845Y-6.0217
X4.0545Y-4.6867
X4.0545Y-5.1867
X7.1845Y-4.4717
X7.1845Y-4.5717
X7.1845Y-4.6717
X7.1845Y-4.7717
X7.1845Y-4.8717
X7.1845Y-4.9717
X7.1845Y-5.0717
X7.1845Y-5.1717
X7.4845Y-4.4717
X7.4845Y-4.5717
X7.4845Y-4.6717
X7.4845Y-4.7717
X7.4845Y-4.8717
X7.4845Y-4.9717
X7.4845Y-5.0717
X7.4845Y-5.1717
X4.0545Y-6.0217
X4.3545Y-6.0217
X4.5847Y-2.9714
X4.5847Y-3.0714
X4.5847Y-3.1714
X4.5847Y-3.2714
X4.5847Y-3.3714
X4.5847Y-3.4714
X4.5847Y-3.5714
X4.5847Y-3.6714
X4.5847Y-3.7714
X4.5847Y-3.8714
X4.5847Y-3.9714
X4.5847Y-4.0714
X4.5847Y-4.1714
X4.5847Y-4.2714
X4.5847Y-4.3714
X4.5847Y-4.4714
X4.5847Y-4.5714
X4.5847Y-4.6714
X4.5847Y-4.7714
X4.5847Y-4.8714
X5.1847Y-2.9714
X5.1847Y-3.0714
X5.1847Y-3.1714
X5.1847Y-3.2714
X5.1847Y-3.3714
X5.1847Y-3.4714
X5.1847Y-3.5714
X5.1847Y-3.6714
X5.1847Y-3.7714
X5.1847Y-3.8714
X5.1847Y-3.9714
X5.1847Y-4.0714
X5.1847Y-4.1714
X5.1847Y-4.2714
X5.1847Y-4.3714
X5.1847Y-4.4714
X5.1847Y-4.5714
X5.1847Y-4.6714
X5.1847Y-4.7714
X5.1847Y-4.8714
X4.0545Y-5.3567
X4.0545Y-5.8567
X8.3845Y-5.4717
X8.3845Y-5.5717
X8.3845Y-5.6717
X8.3845Y-5.7717
X8.3845Y-5.8717
X8.3845Y-5.9717
X8.3845Y-6.0717
X8.3845Y-6.1717
X8.6845Y-5.4717
X8.6845Y-5.5717
X8.6845Y-5.6717
X8.6845Y-5.7717
X8.6845Y-5.8717
X8.6845Y-5.9717
X8.6845Y-6.0717
X8.6845Y-6.1717
X8.5445Y-3.0467
X8.6445Y-3.0467
X8.7445Y-3.0467
X9.7795Y-3.8217
X9.7795Y-3.9217
X9.4245Y-6.0717
X9.5245Y-6.0717
X5.2945Y-4.4733
X5.2945Y-4.5717
X5.8845Y-6.2217
X6.3845Y-6.2217
X4.3835Y-4.0787
X4.3835Y-4.5787
X8.9845Y-5.5717
X8.9845Y-5.6717
X8.9845Y-5.7717
X8.9845Y-5.8717
X8.9845Y-5.9717
X8.9845Y-6.0717
X8.9845Y-6.1717
X9.2845Y-5.5717
X9.2845Y-5.6717
X9.2845Y-5.7717
X9.2845Y-5.8717
X9.2845Y-5.9717
X9.2845Y-6.0717
X9.2845Y-6.1717
X8.8445Y-5.1387
X8.8445Y-5.2387
X8.8445Y-5.3387
X8.3845Y-4.4717
X8.3845Y-4.5717
X8.3845Y-4.6717
X8.3845Y-4.7717
X8.3845Y-4.8717
X8.3845Y-4.9717
X8.3845Y-5.0717
X8.3845Y-5.1717
X8.6845Y-4.4717
X8.6845Y-4.5717
X8.6845Y-4.6717
X8.6845Y-4.7717
X8.6845Y-4.8717
X8.6845Y-4.9717
X8.6845Y-5.0717
X8.6845Y-5.1717
X8.9845Y-4.4717
X8.9845Y-4.5717
X8.9845Y-4.6717
X8.9845Y-4.7717
X8.9845Y-4.8717
X8.9845Y-4.9717
X8.9845Y-5.0717
X8.9845Y-5.1717
X8.9845Y-5.2717
X8.9845Y-5.3717
X9.2845Y-4.4717
X9.2845Y-4.5717
X9.2845Y-4.6717
X9.2845Y-4.7717
X9.2845Y-4.8717
X9.2845Y-4.9717
X9.2845Y-5.0717
X9.2845Y-5.1717
X9.2845Y-5.2717
X9.2845Y-5.3717
X5.9845Y-5.4759
X5.9845Y-5.5759
X5.9845Y-5.6759
X5.9845Y-5.7759
X5.9845Y-5.8759
X5.9845Y-5.9759
X5.9845Y-6.0759
X6.2845Y-5.4759
X6.2845Y-5.5759
X6.2845Y-5.6759
X6.2845Y-5.7759
X6.2845Y-5.8759
X6.2845Y-5.9759
X6.2845Y-6.0759
X8.4345Y-4.3767
X8.5345Y-4.3767
X8.6345Y-4.3767
X6.9861Y-6.0767
X7.0845Y-6.0767
X5.2645Y-5.9717
X5.2645Y-6.0701
X4.2745Y-4.6817
X4.2745Y-5.1817
X4.1695Y-4.6867
X4.1695Y-5.1867
X6.5845Y-5.4717
X6.5845Y-5.5717
X6.5845Y-5.6717
X6.5845Y-5.7717
X6.5845Y-5.8717
X6.5845Y-5.9717
X6.5845Y-6.0717
X6.8845Y-5.4717
X6.8845Y-5.5717
X6.8845Y-5.6717
X6.8845Y-5.7717
X6.8845Y-5.8717
X6.8845Y-5.9717
X6.8845Y-6.0717
X4.6645Y-5.7107
X4.6645Y-5.8107
X4.6645Y-5.9107
X6.5845Y-4.2717
X6.5845Y-4.3717
X6.5845Y-4.4717
X6.5845Y-4.5717
X6.5845Y-4.6717
X6.5845Y-4.7717
X6.5845Y-4.8717
X6.5845Y-4.9717
X6.5845Y-5.0717
X6.5845Y-5.1717
X6.8845Y-4.2717
X6.8845Y-4.3717
X6.8845Y-4.4717
X6.8845Y-4.5717
X6.8845Y-4.6717
X6.8845Y-4.7717
X6.8845Y-4.8717
X6.8845Y-4.9717
X6.8845Y-5.0717
X6.8845Y-5.1717
X6.4345Y-5.9267
X6.4345Y-6.0251
X7.1845Y-5.4717
X7.1845Y-5.5717
X7.1845Y-5.6717
X7.1845Y-5.7717
X7.1845Y-5.8717
X7.1845Y-5.9717
X7.1845Y-6.0717
X7.1845Y-6.1717
X7.4845Y-5.4717
X7.4845Y-5.5717
X7.4845Y-5.6717
X7.4845Y-5.7717
X7.4845Y-5.8717
X7.4845Y-5.9717
X7.4845Y-6.0717
X7.4845Y-6.1717
X8.2095Y-5.5717
X8.2095Y-5.6717
X8.2095Y-5.9167
X8.2095Y-6.0167
X4.4735Y-4.2767
X4.4735Y-4.3767
X6.9845Y-5.4717
X6.9845Y-5.9717
X4.3845Y-4.6817
X4.3845Y-5.1817
X4.6435Y-6.0057
X4.6435Y-6.2025
X4.7845Y-5.4717
X4.7845Y-5.5717
X4.7845Y-5.6717
X4.7845Y-5.7717
X4.7845Y-5.8717
X4.7845Y-5.9717
X4.7845Y-6.0717
X5.0845Y-5.4717
X5.0845Y-5.5717
X5.0845Y-5.6717
X5.0845Y-5.7717
X5.0845Y-5.8717
X5.0845Y-5.9717
X5.0845Y-6.0717
X8.8895Y-4.4167
X8.8895Y-4.5167
X7.2847Y-2.9714
X7.2847Y-3.0714
X7.2847Y-3.1714
X7.2847Y-3.2714
X7.2847Y-3.3714
X7.2847Y-3.4714
X7.2847Y-3.5714
X7.2847Y-3.6714
X7.2847Y-3.7714
X7.2847Y-3.8714
X7.2847Y-3.9714
X7.2847Y-4.0714
X7.2847Y-4.1714
X7.2847Y-4.2714
X7.8847Y-2.9714
X7.8847Y-3.0714
X7.8847Y-3.1714
X7.8847Y-3.2714
X7.8847Y-3.3714
X7.8847Y-3.4714
X7.8847Y-3.5714
X7.8847Y-3.6714
X7.8847Y-3.7714
X7.8847Y-3.8714
X7.8847Y-3.9714
X7.8847Y-4.0714
X7.8847Y-4.1714
X7.8847Y-4.2714
X6.7345Y-6.2217
X6.8345Y-6.2217
X9.6795Y-5.8967
X9.6795Y-5.9967
X9.8295Y-4.9367
X9.8295Y-5.0367
X9.6995Y-3.4717
X9.6995Y-3.5717
X8.2361Y-3.0467
X8.3345Y-3.0467
X7.6845Y-5.5217
X7.6845Y-6.0217
X5.5847Y-2.9714
X5.5847Y-3.0714
X5.5847Y-3.1714
X5.5847Y-3.2714
X5.5847Y-3.3714
X5.5847Y-3.4714
X5.5847Y-3.5714
X5.5847Y-3.6714
X5.5847Y-3.7714
X5.5847Y-3.8714
X5.5847Y-3.9714
X5.5847Y-4.0714
X5.5847Y-4.1714
X5.5847Y-4.2714
X5.5847Y-4.3714
X5.5847Y-4.4714
X5.5847Y-4.5714
X5.5847Y-4.6714
X5.5847Y-4.7714
X5.5847Y-4.8714
X6.1847Y-2.9714
X6.1847Y-3.0714
X6.1847Y-3.1714
X6.1847Y-3.2714
X6.1847Y-3.3714
X6.1847Y-3.4714
X6.1847Y-3.5714
X6.1847Y-3.6714
X6.1847Y-3.7714
X6.1847Y-3.8714
X6.1847Y-3.9714
X6.1847Y-4.0714
X6.1847Y-4.1714
X6.1847Y-4.2714
X6.1847Y-4.3714
X6.1847Y-4.4714
X6.1847Y-4.5714
X6.1847Y-4.6714
X6.1847Y-4.7714
X6.1847Y-4.8714
X5.7185Y-4.9897
X5.8185Y-4.9897
X4.1845Y-5.2967
X4.1845Y-5.3967
X4.1845Y-5.4967
X4.1845Y-5.5967
X4.1845Y-5.6967
X4.1845Y-5.7967
X4.1845Y-5.8967
X4.4845Y-5.2967
X4.4845Y-5.3967
X4.4845Y-5.4967
X4.4845Y-5.5967
X4.4845Y-5.6967
X4.4845Y-5.7967
X4.4845Y-5.8967
X5.3845Y-5.4759
X5.3845Y-5.5759
X5.3845Y-5.6759
X5.3845Y-5.7759
X5.3845Y-5.8759
X5.3845Y-5.9759
X5.3845Y-6.0759
X5.6845Y-5.4759
X5.6845Y-5.5759
X5.6845Y-5.6759
X5.6845Y-5.7759
X5.6845Y-5.8759
X5.6845Y-5.9759
X5.6845Y-6.0759
X9.6725Y-6.1077
X9.6725Y-6.2077
X9.4245Y-5.9717
X9.5245Y-5.9717
X9.7295Y-4.3567
X9.8295Y-4.3567
X8.2645Y-4.5717
X8.2645Y-4.6717
T2
X4.1825Y-3.3257
X4.1825Y-3.4257
X4.1825Y-3.5257
X4.1825Y-3.6257
X4.1825Y-3.7257
X4.1825Y-3.8257
X4.1825Y-3.9257
X4.1825Y-4.0257
X4.1825Y-4.1257
X4.1825Y-4.2257
X4.2825Y-3.3257
X4.2825Y-3.4257
X4.2825Y-3.5257
X4.2825Y-3.6257
X4.2825Y-3.7257
X4.2825Y-3.8257
X4.2825Y-3.9257
X4.2825Y-4.0257
X4.2825Y-4.1257
X4.2825Y-4.2257
T3
X4.2476Y-6.1236
X4.4098Y-2.9714
X4.4308Y-3.7217
X4.5835Y-5.0157
X4.5845Y-5.2067
X4.6333Y-2.8843
X4.6515Y-5.3447
X4.6855Y-2.8317
X4.7095Y-4.4714
X4.7366Y-2.8808
X4.7592Y-4.3714
X4.7805Y-5.0667
X4.7839Y-2.8237
X4.8095Y-4.2714
X4.8318Y-2.8759
X4.8395Y-4.9987
X4.8592Y-4.1714
X4.88Y-2.8156
X4.9005Y-5.5767
X4.9015Y-4.7927
X4.9095Y-4.0717
X4.9263Y-2.8788
X4.9334Y-4.3206
X4.9342Y-3.9714
X4.9347Y-4.4072
X4.9745Y-2.8243
X4.9836Y-3.8717
X5.1265Y-6.2259
X5.1943Y-6.2509
X5.2125Y-5.6717
X5.3095Y-3.6217
X5.3135Y-3.1807
X5.3145Y-3.2667
X5.3815Y-4.9854
X5.4105Y-3.0597
X5.4168Y-3.5737
X5.4743Y-6.2515
X5.4745Y-5.2667
X5.5195Y-5.5077
X5.5845Y-6.2775
X5.6885Y-5.3354
X5.6985Y-5.1402
X5.7199Y-6.1373
X5.7555Y-3.1727
X5.7755Y-5.2333
X5.8375Y-5.6947
X5.9185Y-3.1744
X6.0215Y-5.1166
X6.0395Y-3.2217
X6.0405Y-3.0727
X6.0745Y-5.7767
X6.0745Y-6.0417
X6.1095Y-6.1367
X6.1125Y-5.5457
X6.1244Y-5.6696
X6.1867Y-5.1166
X6.256Y-5.1314
X6.2675Y-5.2259
X6.2792Y-4.2905
X6.2845Y-4.4254
X6.2878Y-4.196
X6.29Y-4.1015
X6.2925Y-4.007
X6.2945Y-3.7167
X6.2955Y-3.8157
X6.2955Y-3.9126
X6.2985Y-3.2357
X6.3047Y-3.0734
X6.3286Y-5.1732
X6.3448Y-3.4714
X6.3698Y-3.5659
X6.3865Y-4.7187
X6.4272Y-3.7359
X6.4565Y-3.6414
X6.4685Y-4.2487
X6.4845Y-4.4217
X6.6835Y-4.3637
X6.7074Y-3.0313
X6.7105Y-5.4319
X6.7118Y-3.8737
X6.7205Y-5.7977
X6.7275Y-5.6727
X6.7275Y-5.5747
X6.7595Y-4.4257
X6.7885Y-3.0497
X6.8085Y-5.1297
X6.8925Y-5.3627
X6.9165Y-6.2662
X6.9403Y-6.1995
X6.9795Y-4.4874
X6.9795Y-4.6801
X6.9796Y-4.5717
X6.9845Y-3.2217
X7.0045Y-4.2067
X7.0122Y-3.3244
X7.0175Y-5.6244
X7.0195Y-4.3027
X7.0448Y-5.3597
X7.0595Y-4.8967
X7.0595Y-5.1227
X7.1095Y-3.3217
X7.1095Y-3.8767
X7.1693Y-3.4315
X7.2473Y-4.8187
X7.2853Y-4.5225
X7.2905Y-6.1237
X7.3135Y-5.0267
X7.3418Y-4.6217
X7.3528Y-4.9016
X7.3795Y-3.3017
X7.4301Y-3.4195
X7.5435Y-4.3765
X7.5495Y-4.0717
X7.5555Y-5.3098
X7.5748Y-3.7714
X7.5995Y-5.8217
X7.6095Y-3.0717
X7.6095Y-3.9717
X7.6095Y-4.4067
X7.6316Y-4.1624
X7.6316Y-4.3302
X7.6485Y-3.571
X7.6645Y-5.2887
X7.6755Y-4.7737
X7.6755Y-5.0247
X7.6795Y-3.1714
X7.6815Y-3.4687
X7.6895Y-4.6587
X7.7515Y-5.2017
X7.8215Y-5.2714
X7.8217Y-2.8557
X7.8595Y-4.4337
X7.9015Y-5.2937
X7.9155Y-5.5657
X7.9334Y-4.9427
X7.9505Y-4.5597
X7.9515Y-4.4347
X7.9558Y-4.3464
X7.9616Y-4.2401
X7.9745Y-5.4019
X7.9785Y-3.0217
X8.0345Y-3.1217
X8.1345Y-2.8717
X8.1623Y-5.0227
X8.1645Y-4.5767
X8.2845Y-5.3385
X8.3075Y-5.9587
X8.3256Y-6.2122
X8.3895Y-3.573
X8.4365Y-3.7744
X8.4545Y-3.0137
X8.4548Y-3.3714
X8.4645Y-5.7167
X8.4645Y-5.9717
X8.4785Y-5.1347
X8.5075Y-4.9627
X8.5345Y-3.6714
X8.5495Y-5.8717
X8.5576Y-4.6988
X8.5785Y-4.5507
X8.5945Y-3.9717
X8.6085Y-4.7887
X8.6498Y-3.4714
X8.6845Y-4.0317
X8.7057Y-4.1301
X8.7094Y-4.3777
X8.7345Y-5.2417
X8.7755Y-3.7697
X8.8381Y-5.6467
X8.8745Y-5.9067
X8.8876Y-5.6973
X8.8895Y-5.5447
X8.8971Y-4.6129
X9.0345Y-2.9717
X9.0345Y-3.1967
X9.0708Y-3.3371
X9.081Y-5.6717
X9.0945Y-4.6717
X9.1146Y-3.6232
X9.1234Y-6.1186
X9.1295Y-5.3717
X9.1335Y-4.7927
X9.1345Y-3.4717
X9.1465Y-4.5737
X9.1475Y-5.0147
X9.1663Y-3.6717
X9.1675Y-5.7717
X9.1712Y-6.0249
X9.1859Y-5.2063
X9.1945Y-4.4767
X9.1995Y-5.1057
X9.206Y-4.8213
X9.3595Y-4.6717
X9.3595Y-4.7717
X9.3595Y-4.8698
X9.3595Y-5.1717
X9.3639Y-6.1319
X9.3669Y-4.9643
X9.3755Y-5.8497
X9.3792Y-2.8647
X9.3795Y-4.5237
X9.3955Y-4.2137
X9.4193Y-3.2774
X9.4325Y-3.1357
X9.4335Y-5.6107
X9.436Y-4.4467
X9.4845Y-3.4752
X9.497Y-4.4844
X9.5595Y-5.8235
X9.5645Y-5.7251
X9.5645Y-5.6267
X9.5743Y-5.5252
X9.5825Y-4.3547
X9.6151Y-5.2231
X9.6468Y-4.4737
X9.6475Y-5.8335
X9.6561Y-2.9951
X9.6615Y-3.8029
X9.6785Y-3.1117
X9.6795Y-3.2067
X9.6845Y-3.3197
X9.7235Y-2.9267
X9.7314Y-3.0183
X9.7704Y-4.7526
X9.7959Y-2.8519
X9.7985Y-6.1888
X9.8Y-2.9502
X9.8094Y-6.0449
X9.8115Y-6.1157
X9.8125Y-4.646
X9.8265Y-6.3097
X9.8295Y-4.5424
X9.87Y-2.8835
X9.8781Y-6.0857
X9.8865Y-2.7777
X9.893Y-6.165
X9.8991Y-6.2832
X9.9537Y-2.8285
X10.0253Y-6.2695
T4
X9.8055Y-5.3067
X9.8055Y-5.8972
X9.9472Y-2.945
X9.9472Y-3.045
X9.9472Y-3.145
X9.9472Y-3.245
X9.9472Y-3.345
X9.9472Y-3.445
X9.9472Y-3.545
X9.9472Y-3.645
X9.9472Y-3.745
X9.9472Y-3.845
X9.9472Y-3.945
X9.9472Y-4.045
X9.9472Y-4.145
X9.9472Y-4.245
X9.9472Y-4.345
X9.9472Y-4.445
X9.9472Y-4.545
X9.9472Y-4.645
X9.9472Y-4.745
X9.9472Y-4.845
X9.9472Y-4.945
X9.9472Y-5.045
X9.9472Y-5.145
X9.9472Y-5.245
X9.9472Y-5.345
X9.9472Y-5.445
X9.9472Y-5.545
X9.9472Y-5.645
X9.9472Y-5.745
X9.9472Y-5.845
X9.9472Y-5.945
X9.9472Y-6.045
X10.0472Y-2.945
X10.0472Y-3.045
X10.0472Y-3.145
X10.0472Y-3.245
X10.0472Y-3.345
X10.0472Y-3.445
X10.0472Y-3.545
X10.0472Y-3.645
X10.0472Y-3.745
X10.0472Y-3.845
X10.0472Y-3.945
X10.0472Y-4.045
X10.0472Y-4.145
X10.0472Y-4.245
X10.0472Y-4.345
X10.0472Y-4.445
X10.0472Y-4.545
X10.0472Y-4.645
X10.0472Y-4.745
X10.0472Y-4.845
X10.0472Y-4.945
X10.0472Y-5.045
X10.0472Y-5.145
X10.0472Y-5.245
X10.0472Y-5.345
X10.0472Y-5.445
X10.0472Y-5.545
X10.0472Y-5.645
X10.0472Y-5.745
X10.0472Y-5.845
X10.0472Y-5.945
X10.0472Y-6.045
X6.4335Y-5.5207
X6.4335Y-5.7175
T0
M30
